<mxfile host="app.diagrams.net" agent="Mozilla/5.0 (Macintosh; Intel Mac OS X 10_15_7) AppleWebKit/605.1.15 (KHTML, like Gecko) Version/17.3 Safari/605.1.15" version="25.0.3">
  <diagram name="第 1 页" id="IpfbtLkJM8W5FaaRcM0U">
    <mxGraphModel dx="1968" dy="1174" grid="1" gridSize="10" guides="1" tooltips="1" connect="1" arrows="1" fold="1" page="1" pageScale="1" pageWidth="827" pageHeight="1169" math="0" shadow="0">
      <root>
        <mxCell id="0" />
        <mxCell id="1" parent="0" />
        <mxCell id="dcNBb-9XLxXadeTzAkYo-6" value="" style="rounded=1;whiteSpace=wrap;html=1;arcSize=12;fillColor=none;strokeColor=#6c8ebf;" parent="1" vertex="1">
          <mxGeometry x="240" y="60" width="530" height="90" as="geometry" />
        </mxCell>
        <mxCell id="dcNBb-9XLxXadeTzAkYo-9" value="军工行业" style="rounded=1;whiteSpace=wrap;html=1;fillColor=#009900;strokeColor=none;fontColor=#FFFFFF;" parent="1" vertex="1">
          <mxGeometry x="620" y="100" width="90" height="30" as="geometry" />
        </mxCell>
        <mxCell id="dcNBb-9XLxXadeTzAkYo-10" value="金融行业" style="rounded=1;whiteSpace=wrap;html=1;fillColor=#009900;strokeColor=none;fontColor=#FFFFFF;" parent="1" vertex="1">
          <mxGeometry x="500" y="100" width="90" height="30" as="geometry" />
        </mxCell>
        <mxCell id="dcNBb-9XLxXadeTzAkYo-11" value="能源行业" style="rounded=1;whiteSpace=wrap;html=1;strokeColor=none;fillColor=#009900;fontColor=#FFFFFF;" parent="1" vertex="1">
          <mxGeometry x="380" y="100" width="90" height="30" as="geometry" />
        </mxCell>
        <mxCell id="dcNBb-9XLxXadeTzAkYo-12" value="通信行业" style="rounded=1;whiteSpace=wrap;html=1;fillColor=#009900;strokeColor=none;fontColor=#FFFFFF;" parent="1" vertex="1">
          <mxGeometry x="260" y="100" width="90" height="30" as="geometry" />
        </mxCell>
        <mxCell id="dcNBb-9XLxXadeTzAkYo-13" value="&lt;b&gt;&lt;font style=&quot;font-size: 13px;&quot;&gt;关键信息基础设施软件供应链安全应用示范&lt;/font&gt;&lt;/b&gt;" style="text;html=1;align=center;verticalAlign=middle;resizable=0;points=[];autosize=1;strokeColor=none;fillColor=none;fontColor=#000000;" parent="1" vertex="1">
          <mxGeometry x="244" y="67" width="270" height="30" as="geometry" />
        </mxCell>
        <mxCell id="dcNBb-9XLxXadeTzAkYo-14" value="" style="rounded=1;whiteSpace=wrap;html=1;arcSize=3;fillColor=none;strokeColor=#6c8ebf;" parent="1" vertex="1">
          <mxGeometry x="380" y="174" width="390" height="686" as="geometry" />
        </mxCell>
        <mxCell id="dcNBb-9XLxXadeTzAkYo-15" value="" style="rounded=1;whiteSpace=wrap;html=1;arcSize=13;fillColor=none;strokeColor=#6c8ebf;" parent="1" vertex="1">
          <mxGeometry x="240" y="174" width="120" height="686" as="geometry" />
        </mxCell>
        <mxCell id="dcNBb-9XLxXadeTzAkYo-16" value="安全追踪高效化" style="rounded=1;whiteSpace=wrap;html=1;arcSize=27;strokeColor=none;fillColor=#FFB570;fontStyle=1" parent="1" vertex="1">
          <mxGeometry x="255" y="240" width="90" height="50" as="geometry" />
        </mxCell>
        <mxCell id="dcNBb-9XLxXadeTzAkYo-17" value="可信代码库分级标准化" style="rounded=1;whiteSpace=wrap;html=1;arcSize=27;strokeColor=none;fillColor=#FFB570;fontStyle=1" parent="1" vertex="1">
          <mxGeometry x="255" y="780" width="90" height="50" as="geometry" />
        </mxCell>
        <mxCell id="dcNBb-9XLxXadeTzAkYo-18" value="关键代码识别规范化" style="rounded=1;whiteSpace=wrap;html=1;arcSize=27;strokeColor=none;fillColor=#FFB570;fontStyle=1" parent="1" vertex="1">
          <mxGeometry x="251" y="605" width="90" height="50" as="geometry" />
        </mxCell>
        <mxCell id="dcNBb-9XLxXadeTzAkYo-19" value="安全检测修复精准化" style="rounded=1;whiteSpace=wrap;html=1;arcSize=27;strokeColor=none;fillColor=#FFB570;fontStyle=1" parent="1" vertex="1">
          <mxGeometry x="255" y="430" width="90" height="50" as="geometry" />
        </mxCell>
        <mxCell id="dcNBb-9XLxXadeTzAkYo-20" value="" style="rounded=1;whiteSpace=wrap;html=1;dashed=1;arcSize=8;strokeWidth=2;" parent="1" vertex="1">
          <mxGeometry x="396" y="192" width="360" height="120" as="geometry" />
        </mxCell>
        <mxCell id="dcNBb-9XLxXadeTzAkYo-21" value="" style="rounded=1;whiteSpace=wrap;html=1;dashed=1;arcSize=5;strokeWidth=2;" parent="1" vertex="1">
          <mxGeometry x="395" y="333" width="360" height="374" as="geometry" />
        </mxCell>
        <mxCell id="dcNBb-9XLxXadeTzAkYo-22" value="" style="rounded=1;whiteSpace=wrap;html=1;dashed=1;arcSize=10;strokeWidth=2;" parent="1" vertex="1">
          <mxGeometry x="395" y="730" width="360" height="120" as="geometry" />
        </mxCell>
        <mxCell id="dcNBb-9XLxXadeTzAkYo-24" value="" style="rounded=1;whiteSpace=wrap;html=1;arcSize=8;" parent="1" vertex="1">
          <mxGeometry x="410" y="390" width="330" height="169" as="geometry" />
        </mxCell>
        <mxCell id="dcNBb-9XLxXadeTzAkYo-25" value="" style="rounded=1;whiteSpace=wrap;html=1;arcSize=12;" parent="1" vertex="1">
          <mxGeometry x="410" y="580" width="330" height="100" as="geometry" />
        </mxCell>
        <mxCell id="dcNBb-9XLxXadeTzAkYo-26" value="&lt;span style=&quot;background-color: rgb(204, 204, 204);&quot;&gt;可信开源代码库的应用&lt;/span&gt;&lt;span style=&quot;caret-color: rgba(0, 0, 0, 0); color: rgba(0, 0, 0, 0); font-family: monospace; font-size: 0px; text-align: start;&quot;&gt;%3CmxGraphModel%3E%3Croot%3E%3CmxCell%20id%3D%220%22%2F%3E%3CmxCell%20id%3D%221%22%20parent%3D%220%22%2F%3E%3CmxCell%20id%3D%222%22%20value%3D%22%22%20style%3D%22rounded%3D1%3BwhiteSpace%3Dwrap%3Bhtml%3D1%3Bdashed%3D1%3B%22%20vertex%3D%221%22%20parent%3D%221%22%3E%3CmxGeometry%20x%3D%22396%22%20y%3D%22192%22%20width%3D%22360%22%20height%3D%22120%22%20as%3D%22geometry%22%2F%3E%3C%2FmxCell%3E%3C%2Froot%3E%3C%2FmxGraphModel%3E&lt;/span&gt;" style="text;html=1;align=center;verticalAlign=middle;resizable=0;points=[];autosize=1;strokeColor=none;fillColor=none;fontStyle=1" parent="1" vertex="1">
          <mxGeometry x="400" y="191" width="140" height="30" as="geometry" />
        </mxCell>
        <mxCell id="dcNBb-9XLxXadeTzAkYo-27" value="&lt;span style=&quot;background-color: rgb(204, 204, 204);&quot;&gt;可信开源代码库的应用&lt;/span&gt;&lt;span style=&quot;caret-color: rgba(0, 0, 0, 0); color: rgba(0, 0, 0, 0); font-family: monospace; font-size: 0px; text-align: start;&quot;&gt;%3CmxGraphModel%3E%3Croot%3E%3CmxCell%20id%3D%220%22%2F%3E%3CmxCell%20id%3D%221%22%20parent%3D%220%22%2F%3E%3CmxCell%20id%3D%222%22%20value%3D%22%22%20style%3D%22rounded%3D1%3BwhiteSpace%3Dwrap%3Bhtml%3D1%3Bdashed%3D1%3B%22%20vertex%3D%221%22%20parent%3D%221%22%3E%3CmxGeometry%20x%3D%22396%22%20y%3D%22192%22%20width%3D%22360%22%20height%3D%22120%22%20as%3D%22geometry%22%2F%3E%3C%2FmxCell%3E%3C%2Froot%3E%3C%2FmxGraphModel%3E&lt;/span&gt;" style="text;html=1;align=center;verticalAlign=middle;resizable=0;points=[];autosize=1;strokeColor=none;fillColor=none;fontStyle=1" parent="1" vertex="1">
          <mxGeometry x="400" y="337" width="140" height="30" as="geometry" />
        </mxCell>
        <mxCell id="dcNBb-9XLxXadeTzAkYo-28" value="&lt;span style=&quot;background-color: rgb(204, 204, 204);&quot;&gt;可信开源代码库标准体系与评估&lt;/span&gt;&lt;span style=&quot;caret-color: rgba(0, 0, 0, 0); color: rgba(0, 0, 0, 0); font-family: monospace; font-size: 0px; text-align: start;&quot;&gt;%3CmxGraphModel%3E%3Croot%3E%3CmxCell%20id%3D%220%22%2F%3E%3CmxCell%20id%3D%221%22%20parent%3D%220%22%2F%3E%3CmxCell%20id%3D%222%22%20value%3D%22%22%20style%3D%22rounded%3D1%3BwhiteSpace%3Dwrap%3Bhtml%3D1%3Bdashed%3D1%3B%22%20vertex%3D%221%22%20parent%3D%221%22%3E%3CmxGeometry%20x%3D%22396%22%20y%3D%22192%22%20width%3D%22360%22%20height%3D%22120%22%20as%3D%22geometry%22%2F%3E%3C%2FmxCell%3E%3C%2Froot%3E%3C%2FmxGraphModel%&lt;/span&gt;" style="text;html=1;align=center;verticalAlign=middle;resizable=0;points=[];autosize=1;strokeColor=none;fillColor=none;fontStyle=1" parent="1" vertex="1">
          <mxGeometry x="397" y="737" width="190" height="30" as="geometry" />
        </mxCell>
        <mxCell id="dcNBb-9XLxXadeTzAkYo-29" value="开源代码可信检测与修复" style="text;html=1;align=center;verticalAlign=middle;resizable=0;points=[];autosize=1;strokeColor=none;fillColor=none;fontStyle=1" parent="1" vertex="1">
          <mxGeometry x="422" y="399" width="160" height="30" as="geometry" />
        </mxCell>
        <mxCell id="dcNBb-9XLxXadeTzAkYo-30" value="关键可信代码库的构建与管理" style="text;html=1;align=center;verticalAlign=middle;resizable=0;points=[];autosize=1;strokeColor=none;fillColor=none;fontStyle=1" parent="1" vertex="1">
          <mxGeometry x="412" y="585" width="180" height="30" as="geometry" />
        </mxCell>
        <mxCell id="dcNBb-9XLxXadeTzAkYo-31" value="" style="rounded=1;whiteSpace=wrap;html=1;" parent="1" vertex="1">
          <mxGeometry x="410" y="220" width="330" height="80" as="geometry" />
        </mxCell>
        <mxCell id="dcNBb-9XLxXadeTzAkYo-32" value="开源代码库应急响应与影响力评估" style="text;html=1;align=center;verticalAlign=middle;resizable=0;points=[];autosize=1;strokeColor=none;fillColor=none;fontStyle=1" parent="1" vertex="1">
          <mxGeometry x="422" y="221" width="200" height="30" as="geometry" />
        </mxCell>
        <mxCell id="dcNBb-9XLxXadeTzAkYo-33" value="可信开源代码标准体系建设" style="rounded=1;whiteSpace=wrap;html=1;arcSize=12;" parent="1" vertex="1">
          <mxGeometry x="410" y="780" width="140" height="50" as="geometry" />
        </mxCell>
        <mxCell id="dcNBb-9XLxXadeTzAkYo-35" value="可信开源代码标准体系评估" style="rounded=1;whiteSpace=wrap;html=1;arcSize=12;" parent="1" vertex="1">
          <mxGeometry x="582" y="780" width="140" height="50" as="geometry" />
        </mxCell>
        <mxCell id="3au9u2LD3lqc_JyRLxHd-4" value="开源代码安全风险评估预警" style="rounded=0;whiteSpace=wrap;html=1;fillColor=#007FFF;fontColor=#FFFFFF;strokeColor=none;" vertex="1" parent="1">
          <mxGeometry x="423" y="252" width="88" height="39" as="geometry" />
        </mxCell>
        <mxCell id="3au9u2LD3lqc_JyRLxHd-5" value="开源代码安全风险应急响应" style="rounded=0;whiteSpace=wrap;html=1;fillColor=#007FFF;fontColor=#FFFFFF;strokeColor=none;" vertex="1" parent="1">
          <mxGeometry x="528" y="252" width="88" height="39" as="geometry" />
        </mxCell>
        <mxCell id="3au9u2LD3lqc_JyRLxHd-6" value="开源代码库影响力评估" style="rounded=0;whiteSpace=wrap;html=1;fillColor=#007FFF;fontColor=#FFFFFF;strokeColor=none;" vertex="1" parent="1">
          <mxGeometry x="638" y="252" width="88" height="39" as="geometry" />
        </mxCell>
        <mxCell id="3au9u2LD3lqc_JyRLxHd-13" value="多级融合智能漏洞检测与修复" style="rounded=0;whiteSpace=wrap;html=1;fillColor=#007FFF;fontColor=#FFFFFF;strokeColor=none;" vertex="1" parent="1">
          <mxGeometry x="424.5" y="441" width="88" height="39" as="geometry" />
        </mxCell>
        <mxCell id="3au9u2LD3lqc_JyRLxHd-14" value="开源代码漏洞众测" style="rounded=0;whiteSpace=wrap;html=1;fillColor=#007FFF;fontColor=#FFFFFF;strokeColor=none;" vertex="1" parent="1">
          <mxGeometry x="529.5" y="441" width="88" height="39" as="geometry" />
        </mxCell>
        <mxCell id="3au9u2LD3lqc_JyRLxHd-15" value="恶意代码投毒检测与清除" style="rounded=0;whiteSpace=wrap;html=1;fillColor=#007FFF;fontColor=#FFFFFF;strokeColor=none;" vertex="1" parent="1">
          <mxGeometry x="639.5" y="441" width="88" height="39" as="geometry" />
        </mxCell>
        <mxCell id="3au9u2LD3lqc_JyRLxHd-16" value="&lt;font style=&quot;font-size: 11px;&quot;&gt;面向海量开源代码的关键代码识别&lt;/font&gt;" style="rounded=0;whiteSpace=wrap;html=1;fillColor=#007FFF;fontColor=#FFFFFF;strokeColor=none;" vertex="1" parent="1">
          <mxGeometry x="420" y="620" width="91.5" height="39" as="geometry" />
        </mxCell>
        <mxCell id="3au9u2LD3lqc_JyRLxHd-17" value="可信开源代码库的构建" style="rounded=0;whiteSpace=wrap;html=1;fillColor=#007FFF;fontColor=#FFFFFF;strokeColor=none;" vertex="1" parent="1">
          <mxGeometry x="528.5" y="620" width="88" height="39" as="geometry" />
        </mxCell>
        <mxCell id="3au9u2LD3lqc_JyRLxHd-18" value="可信开源代码库的管理" style="rounded=0;whiteSpace=wrap;html=1;fillColor=#007FFF;fontColor=#FFFFFF;strokeColor=none;" vertex="1" parent="1">
          <mxGeometry x="638.5" y="620" width="88" height="39" as="geometry" />
        </mxCell>
        <mxCell id="3au9u2LD3lqc_JyRLxHd-19" value="代码质量检测与优化" style="rounded=0;whiteSpace=wrap;html=1;fillColor=#007FFF;fontColor=#FFFFFF;strokeColor=none;" vertex="1" parent="1">
          <mxGeometry x="478.5" y="497.5" width="88" height="39" as="geometry" />
        </mxCell>
        <mxCell id="3au9u2LD3lqc_JyRLxHd-20" value="代码版权检测与保护" style="rounded=0;whiteSpace=wrap;html=1;fillColor=#007FFF;fontColor=#FFFFFF;strokeColor=none;" vertex="1" parent="1">
          <mxGeometry x="583.5" y="497.5" width="88" height="39" as="geometry" />
        </mxCell>
        <mxCell id="3au9u2LD3lqc_JyRLxHd-21" value="" style="shape=singleArrow;direction=north;whiteSpace=wrap;html=1;arrowWidth=0.57068965517241;arrowSize=0.16309412861137174;" vertex="1" parent="1">
          <mxGeometry x="440" y="143" width="30" height="37" as="geometry" />
        </mxCell>
        <mxCell id="3au9u2LD3lqc_JyRLxHd-22" value="" style="shape=singleArrow;direction=north;whiteSpace=wrap;html=1;arrowWidth=0.57068965517241;arrowSize=0.16309412861137174;rotation=-180;" vertex="1" parent="1">
          <mxGeometry x="620" y="143" width="30" height="37" as="geometry" />
        </mxCell>
        <mxCell id="3au9u2LD3lqc_JyRLxHd-23" value="........" style="text;html=1;align=center;verticalAlign=middle;resizable=0;points=[];autosize=1;strokeColor=none;fillColor=none;fontStyle=1" vertex="1" parent="1">
          <mxGeometry x="710" y="100" width="50" height="30" as="geometry" />
        </mxCell>
        <mxCell id="3au9u2LD3lqc_JyRLxHd-24" value="验证" style="text;html=1;align=center;verticalAlign=middle;resizable=0;points=[];autosize=1;strokeColor=none;fillColor=none;" vertex="1" parent="1">
          <mxGeometry x="390" y="146.5" width="50" height="30" as="geometry" />
        </mxCell>
        <mxCell id="3au9u2LD3lqc_JyRLxHd-25" value="支撑" style="text;html=1;align=center;verticalAlign=middle;resizable=0;points=[];autosize=1;strokeColor=none;fillColor=none;" vertex="1" parent="1">
          <mxGeometry x="650" y="146.5" width="50" height="30" as="geometry" />
        </mxCell>
        <mxCell id="3au9u2LD3lqc_JyRLxHd-26" value="" style="shape=singleArrow;direction=north;whiteSpace=wrap;html=1;arrowWidth=0.57068965517241;arrowSize=0.16309412861137174;" vertex="1" parent="1">
          <mxGeometry x="557" y="550" width="30" height="37" as="geometry" />
        </mxCell>
        <mxCell id="3au9u2LD3lqc_JyRLxHd-27" value="" style="shape=singleArrow;direction=north;whiteSpace=wrap;html=1;arrowWidth=0.57068965517241;arrowSize=0.16309412861137174;" vertex="1" parent="1">
          <mxGeometry x="558.5" y="700" width="30" height="37" as="geometry" />
        </mxCell>
        <mxCell id="3au9u2LD3lqc_JyRLxHd-28" value="" style="shape=singleArrow;direction=north;whiteSpace=wrap;html=1;arrowWidth=0.3049482163406188;arrowSize=0.23748786912519057;rotation=90;" vertex="1" parent="1">
          <mxGeometry x="368.03" y="225.91" width="26.07" height="72.13" as="geometry" />
        </mxCell>
        <mxCell id="3au9u2LD3lqc_JyRLxHd-29" value="" style="shape=singleArrow;direction=north;whiteSpace=wrap;html=1;arrowWidth=0.3049482163406188;arrowSize=0.23748786912519057;rotation=90;" vertex="1" parent="1">
          <mxGeometry x="368.03" y="418.94" width="26.07" height="72.13" as="geometry" />
        </mxCell>
        <mxCell id="3au9u2LD3lqc_JyRLxHd-30" value="" style="shape=singleArrow;direction=north;whiteSpace=wrap;html=1;arrowWidth=0.3049482163406188;arrowSize=0.23748786912519057;rotation=90;" vertex="1" parent="1">
          <mxGeometry x="363.92999999999995" y="594" width="26.07" height="72.13" as="geometry" />
        </mxCell>
        <mxCell id="3au9u2LD3lqc_JyRLxHd-31" value="" style="shape=singleArrow;direction=north;whiteSpace=wrap;html=1;arrowWidth=0.3049482163406188;arrowSize=0.23748786912519057;rotation=90;" vertex="1" parent="1">
          <mxGeometry x="363.92999999999995" y="768.87" width="26.07" height="72.13" as="geometry" />
        </mxCell>
        <mxCell id="3au9u2LD3lqc_JyRLxHd-32" value="" style="shape=singleArrow;direction=north;whiteSpace=wrap;html=1;arrowWidth=0.455312619869569;arrowSize=0.28398005636245444;rotation=90;" vertex="1" parent="1">
          <mxGeometry x="557" y="785.9300000000001" width="20" height="40" as="geometry" />
        </mxCell>
        <mxCell id="3au9u2LD3lqc_JyRLxHd-34" value="&lt;font color=&quot;#ff3333&quot;&gt;&lt;span style=&quot;caret-color: rgb(255, 51, 51);&quot;&gt;科学问题四&lt;/span&gt;&lt;/font&gt;" style="text;html=1;align=center;verticalAlign=middle;resizable=0;points=[];autosize=1;strokeColor=none;fillColor=none;" vertex="1" parent="1">
          <mxGeometry x="666.5" y="192" width="80" height="30" as="geometry" />
        </mxCell>
        <mxCell id="3au9u2LD3lqc_JyRLxHd-37" value="&lt;font color=&quot;#ff3333&quot;&gt;&lt;span style=&quot;caret-color: rgb(255, 51, 51);&quot;&gt;科学问题三&lt;/span&gt;&lt;/font&gt;" style="text;html=1;align=center;verticalAlign=middle;resizable=0;points=[];autosize=1;strokeColor=none;fillColor=none;" vertex="1" parent="1">
          <mxGeometry x="666.5" y="340" width="80" height="30" as="geometry" />
        </mxCell>
        <mxCell id="3au9u2LD3lqc_JyRLxHd-38" value="&lt;font color=&quot;#ff3333&quot;&gt;&lt;span style=&quot;caret-color: rgb(255, 51, 51);&quot;&gt;科学问题二&lt;/span&gt;&lt;/font&gt;" style="text;html=1;align=center;verticalAlign=middle;resizable=0;points=[];autosize=1;strokeColor=none;fillColor=none;" vertex="1" parent="1">
          <mxGeometry x="659" y="586" width="80" height="30" as="geometry" />
        </mxCell>
        <mxCell id="3au9u2LD3lqc_JyRLxHd-39" value="&lt;font color=&quot;#ff3333&quot;&gt;&lt;span style=&quot;caret-color: rgb(255, 51, 51);&quot;&gt;科学问题一&lt;/span&gt;&lt;/font&gt;" style="text;html=1;align=center;verticalAlign=middle;resizable=0;points=[];autosize=1;strokeColor=none;fillColor=none;" vertex="1" parent="1">
          <mxGeometry x="662" y="738.87" width="80" height="30" as="geometry" />
        </mxCell>
        <mxCell id="3au9u2LD3lqc_JyRLxHd-41" value="&lt;font color=&quot;#007fff&quot; style=&quot;font-size: 23px;&quot;&gt;&lt;b&gt;标&lt;/b&gt;&lt;/font&gt;&lt;div&gt;&lt;font color=&quot;#007fff&quot; style=&quot;font-size: 23px;&quot;&gt;&lt;b&gt;准&lt;/b&gt;&lt;/font&gt;&lt;/div&gt;&lt;div&gt;&lt;font color=&quot;#007fff&quot; style=&quot;font-size: 23px;&quot;&gt;&lt;b&gt;牵&lt;/b&gt;&lt;/font&gt;&lt;/div&gt;&lt;div&gt;&lt;font color=&quot;#007fff&quot; style=&quot;font-size: 23px;&quot;&gt;&lt;b&gt;引&lt;/b&gt;&lt;/font&gt;&lt;/div&gt;&lt;div&gt;&lt;font color=&quot;#007fff&quot; style=&quot;font-size: 23px;&quot;&gt;&lt;b&gt;,&lt;/b&gt;&lt;/font&gt;&lt;/div&gt;&lt;div&gt;&lt;font color=&quot;#007fff&quot; style=&quot;font-size: 23px;&quot;&gt;&lt;b&gt;&amp;nbsp;前&lt;/b&gt;&lt;/font&gt;&lt;/div&gt;&lt;div&gt;&lt;font color=&quot;#007fff&quot; style=&quot;font-size: 23px;&quot;&gt;&lt;b&gt;沿&lt;/b&gt;&lt;/font&gt;&lt;/div&gt;&lt;div&gt;&lt;font color=&quot;#007fff&quot; style=&quot;font-size: 23px;&quot;&gt;&lt;b&gt;引&lt;/b&gt;&lt;/font&gt;&lt;/div&gt;&lt;div&gt;&lt;font color=&quot;#007fff&quot; style=&quot;font-size: 23px;&quot;&gt;&lt;b&gt;领&lt;/b&gt;&lt;/font&gt;&lt;/div&gt;" style="text;html=1;align=center;verticalAlign=middle;resizable=0;points=[];autosize=1;strokeColor=none;fillColor=none;" vertex="1" parent="1">
          <mxGeometry x="188" y="312" width="50" height="260" as="geometry" />
        </mxCell>
        <mxCell id="3au9u2LD3lqc_JyRLxHd-42" value="&lt;font color=&quot;#007fff&quot;&gt;&lt;span style=&quot;caret-color: rgb(0, 127, 255); font-size: 23px;&quot;&gt;&lt;b&gt;目&lt;/b&gt;&lt;/span&gt;&lt;/font&gt;&lt;div&gt;&lt;font color=&quot;#007fff&quot;&gt;&lt;span style=&quot;caret-color: rgb(0, 127, 255); font-size: 23px;&quot;&gt;&lt;b&gt;标&lt;/b&gt;&lt;/span&gt;&lt;/font&gt;&lt;/div&gt;&lt;div&gt;&lt;font color=&quot;#007fff&quot;&gt;&lt;span style=&quot;caret-color: rgb(0, 127, 255); font-size: 23px;&quot;&gt;&lt;b&gt;导&lt;/b&gt;&lt;/span&gt;&lt;/font&gt;&lt;/div&gt;&lt;div&gt;&lt;font color=&quot;#007fff&quot;&gt;&lt;span style=&quot;caret-color: rgb(0, 127, 255); font-size: 23px;&quot;&gt;&lt;b&gt;向&lt;/b&gt;&lt;/span&gt;&lt;/font&gt;&lt;/div&gt;" style="text;html=1;align=center;verticalAlign=middle;resizable=0;points=[];autosize=1;strokeColor=none;fillColor=none;" vertex="1" parent="1">
          <mxGeometry x="772" y="382" width="50" height="120" as="geometry" />
        </mxCell>
        <mxCell id="3au9u2LD3lqc_JyRLxHd-44" value="&lt;font color=&quot;#007fff&quot;&gt;&lt;span style=&quot;caret-color: rgb(0, 127, 255); font-size: 23px;&quot;&gt;&lt;b&gt;应用赋能&lt;/b&gt;&lt;/span&gt;&lt;/font&gt;" style="text;html=1;align=center;verticalAlign=middle;resizable=0;points=[];autosize=1;strokeColor=none;fillColor=none;" vertex="1" parent="1">
          <mxGeometry x="445" y="16" width="120" height="40" as="geometry" />
        </mxCell>
      </root>
    </mxGraphModel>
  </diagram>
</mxfile>
